<svg xmlns="http://www.w3.org/2000/svg" xmlns:xlink="http://www.w3.org/1999/xlink" width="500" zoomAndPan="magnify" viewBox="0 0 375 374.999991" height="500" preserveAspectRatio="xMidYMid meet" version="1.0"><path fill="#ffffff" d="M 320.101562 54.898438 C 284.699219 19.5 237.601562 0 187.5 0 C 84.148438 0 0 84.074219 0 187.5 C 0 290.925781 84.074219 375 187.5 375 C 290.925781 375 375 290.925781 375 187.5 C 375 137.398438 355.5 90.300781 320.101562 54.898438 Z M 320.101562 54.898438 " fill-opacity="1" fill-rule="nonzero"/><path stroke-linecap="butt" transform="matrix(0.594406, 0, 0, 0.594406, 37.500002, 37.499998)" fill-opacity="1" fill="#2e0065" fill-rule="nonzero" stroke-linejoin="miter" d="M 22.600024 69.699303 C 50.201104 69.699303 77.900759 69.699303 105.501839 69.699303 C 105.501839 166.500233 105.298117 263.301164 105.600414 360.102094 C 135.403009 360.20067 209.801063 360.601542 210.096789 360.39782 C 210.399086 360.20067 210.201936 293.800357 210.201936 261.2968 C 237.901591 261.500522 265.601246 261.198224 293.300901 261.500522 C 292.998604 294.398381 293.300901 327.401386 293.202326 360.299245 C 312.102494 359.701221 331.101238 360.299245 350.001406 360.102094 C 365.602588 360.102094 381.197198 359.996947 396.79838 360.20067 C 396.79838 263.399739 396.896955 166.598809 396.79838 69.797878 C 425.10263 69.797878 453.400309 69.797878 481.697987 69.797878 C 481.803134 195.901955 481.697987 321.99946 481.697987 448.096966 C 478.898449 445.001702 398.599022 361.298141 396.79838 360.102094 C 396.79838 369.999053 396.79838 428.999647 396.699804 448.997287 C 367.100932 448.997287 337.50206 448.997287 308.001762 448.997287 C 304.301903 448.898712 300.496897 449.39816 296.797038 448.497839 C 296.199015 447.702665 295.600991 446.999494 294.897821 446.302896 C 267.401888 418.399518 210.300511 360.798693 209.998213 360.601542 C 209.998213 363.000208 209.998213 365.70117 209.998213 368.099836 C 209.801063 394.997745 209.998213 421.902227 209.702488 448.800136 C 177.297505 448.800136 144.800519 448.997287 112.402109 448.701561 C 84.301581 420.20016 24.499241 360.502967 22.797174 359.103198 C 22.698599 262.70314 22.797174 166.197936 22.797174 69.797878 Z M 22.600024 69.699303 " stroke="#000001" stroke-width="0.2" stroke-opacity="1" stroke-miterlimit="4"/><path stroke-linecap="butt" transform="matrix(0.594406, 0, 0, 0.594406, 37.500002, 37.499998)" fill-opacity="1" fill="#2e0065" fill-rule="nonzero" stroke-linejoin="miter" d="M 210.399086 164.699591 C 210.300511 132.99778 210.399086 101.302539 210.399086 69.600727 C 238.098741 69.600727 265.798397 69.600727 293.498052 69.600727 C 293.300901 101.302539 293.300901 132.99778 293.498052 164.601016 C 265.798397 164.601016 238.197317 164.601016 210.497662 164.601016 Z M 210.399086 164.699591 " stroke="#000001" stroke-width="0.2" stroke-opacity="1" stroke-miterlimit="4"/></svg>